<?xml version="1.0" standalone="no"?>
<!DOCTYPE svg PUBLIC "-//W3C//DTD SVG 20010904//EN"
 "http://www.w3.org/TR/2001/REC-SVG-20010904/DTD/svg10.dtd">
<svg version="1.0" xmlns="http://www.w3.org/2000/svg"
 width="1600.000000pt" height="1336.000000pt" viewBox="0 0 1600.000000 1336.000000"
 preserveAspectRatio="xMidYMid meet">

<g transform="translate(0.000000,1336.000000) scale(0.100000,-0.100000)"
fill="#000000" stroke="none">
<path d="M7385 11443 c-242 -17 -601 -74 -753 -120 -48 -14 -108 -32 -133 -39
-117 -32 -384 -153 -504 -227 -208 -130 -422 -331 -541 -507 -262 -390 -408
-860 -483 -1555 -30 -269 -34 -437 -25 -985 12 -762 11 -1227 -3 -1331 -14
-98 -76 -301 -135 -434 -87 -198 -248 -509 -335 -647 -12 -21 -23 -40 -23 -43
0 -3 -15 -29 -33 -58 -19 -28 -71 -113 -117 -187 -77 -124 -133 -211 -402
-620 -83 -128 -180 -281 -288 -460 -126 -210 -257 -457 -338 -640 -127 -287
-169 -457 -158 -645 21 -380 145 -622 408 -792 131 -85 542 -228 880 -307 184
-43 469 -76 653 -76 237 0 387 32 560 118 155 77 281 183 352 295 98 156 174
481 193 832 29 510 143 883 314 1030 63 53 188 128 281 168 359 152 1085 313
1615 357 425 36 817 -25 1109 -172 419 -212 629 -509 666 -943 6 -69 4 -87
-15 -130 -67 -154 -149 -429 -191 -640 -25 -128 -36 -416 -20 -539 20 -162 86
-269 203 -332 l73 -39 145 -3 c219 -6 537 35 780 100 63 17 140 36 170 44 53
13 321 104 464 157 303 114 492 350 541 678 32 214 13 404 -63 630 -98 289
-277 636 -545 1059 -92 146 -132 210 -165 270 -17 30 -47 84 -67 120 -46 83
-186 370 -213 435 -51 125 -93 252 -114 342 -22 97 -22 110 -29 1168 -4 625
-11 1124 -17 1200 -7 72 -16 200 -22 285 -9 139 -22 241 -75 590 -32 214 -133
588 -211 788 -278 707 -781 1217 -1487 1508 -179 74 -504 176 -662 208 -107
22 -322 57 -445 72 -118 15 -667 27 -795 17z m1606 -2298 c373 -65 688 -297
967 -711 63 -94 176 -301 228 -416 86 -194 139 -358 199 -623 43 -191 58 -595
29 -792 -16 -107 -55 -227 -107 -329 -93 -180 -306 -354 -515 -423 -86 -28
-283 -68 -433 -87 -163 -21 -918 -31 -1100 -15 -477 44 -736 131 -891 301 -99
108 -184 296 -217 474 -18 97 -24 380 -12 551 15 224 76 524 140 690 17 44 31
83 31 88 0 4 23 61 51 125 220 507 537 887 884 1059 79 40 243 93 340 111 80
15 313 14 406 -3z"/>
<path d="M8400 8736 c-195 -47 -396 -110 -471 -147 -42 -21 -96 -79 -115 -125
-24 -58 -18 -243 11 -349 39 -143 79 -261 135 -395 181 -440 253 -689 235
-821 -9 -65 -68 -184 -149 -302 -153 -221 -177 -352 -93 -510 63 -120 218
-222 353 -234 80 -6 192 9 282 38 86 28 163 99 192 176 53 141 32 277 -90 583
-104 261 -124 347 -117 493 3 62 14 147 26 191 57 220 249 497 416 598 122 74
287 109 362 76 15 -7 60 -33 98 -59 109 -72 148 -89 205 -89 127 0 209 99 218
265 6 104 -10 177 -58 273 -43 85 -117 167 -190 208 -88 50 -157 67 -275 67
-96 1 -116 -2 -155 -23 -64 -33 -164 -139 -245 -260 -88 -133 -161 -210 -199
-210 -40 0 -73 39 -82 95 -5 36 0 72 20 151 30 117 25 172 -18 229 -57 75
-182 109 -296 81z"/>
<path d="M9121 7875 c-152 -43 -201 -149 -201 -436 l0 -149 -35 -70 c-19 -38
-60 -107 -90 -154 -81 -125 -109 -189 -102 -239 10 -76 75 -113 213 -124 54
-4 78 -2 102 11 41 21 51 41 62 129 12 96 23 123 61 146 46 28 163 55 239 55
80 0 142 -30 174 -86 19 -34 20 -40 7 -85 -21 -70 -25 -128 -11 -153 11 -21
17 -22 79 -17 103 8 168 32 191 70 23 36 26 93 8 134 -7 15 -39 75 -73 133
l-60 105 -7 220 c-6 189 -10 229 -28 277 -42 112 -115 188 -215 223 -70 24
-243 30 -314 10z m332 -279 c41 -17 83 -65 113 -131 32 -68 34 -190 4 -228
-24 -30 -90 -47 -186 -47 -156 0 -198 35 -191 155 3 53 11 85 35 130 60 118
136 159 225 121z"/>
</g>
</svg>
